# Blender 4.5.3 LTS
# www.blender.org
mtllib model.mtl
o Cube
v -0.750000 -1.815625 0.750000
v -0.750000 1.815625 0.750000
v -0.750000 -1.815625 -0.750000
v -0.750000 1.815625 -0.750000
v 0.750000 -1.815625 0.750000
v 0.750000 1.815625 0.750000
v 0.750000 -1.815625 -0.750000
v 0.750000 1.815625 -0.750000
vn -1.0000 -0.0000 -0.0000
vn -0.0000 -0.0000 -1.0000
vn 1.0000 -0.0000 -0.0000
vn -0.0000 -0.0000 1.0000
vn -0.0000 -1.0000 -0.0000
vn -0.0000 1.0000 -0.0000
vt 0.883117 0.656250
vt 0.883117 0.640625
vt 0.571429 0.640625
vt 0.571429 0.656250
vt 0.571429 0.281250
vt 0.883117 0.281250
s 1
usemtl Material.002
f 1/1/1 2/2/1 4/3/1 3/4/1
f 3/1/2 4/2/2 8/3/2 7/4/2
f 7/1/3 8/2/3 6/3/3 5/4/3
f 5/1/4 6/2/4 2/3/4 1/4/4
f 3/4/5 7/5/5 5/6/5 1/1/5
f 8/6/6 4/1/6 2/4/6 6/5/6
o Plane
v -0.750000 -2.000000 1.500000
v -1.500000 -2.000000 0.750000
v 1.500000 -2.000000 0.750000
v 0.750000 -2.000000 1.500000
v -0.750000 -2.000000 -1.500000
v -1.500000 -2.000000 -0.750000
v 0.750000 -2.000000 -1.500000
v 1.500000 -2.000000 -0.750000
v -1.226250 -2.000000 -0.636609
v -1.226250 -2.000000 0.636609
v -0.636609 -2.000000 1.226250
v 0.636609 -2.000000 1.226250
v 1.226250 -2.000000 0.636609
v 1.226250 -2.000000 -0.636609
v 0.636609 -2.000000 -1.226250
v -0.636609 -2.000000 -1.226250
v -1.226250 -1.625000 -0.636609
v -1.226250 -1.625000 0.636609
v -0.636609 -1.625000 1.226250
v 0.636609 -1.625000 1.226250
v 1.226250 -1.625000 0.636609
v 1.226250 -1.625000 -0.636609
v 0.636609 -1.625000 -1.226250
v -0.636609 -1.625000 -1.226250
v -1.500000 -1.625000 -0.750000
v -1.500000 -1.625000 0.750000
v -0.750000 -1.625000 1.500000
v 0.750000 -1.625000 1.500000
v 1.500000 -1.625000 0.750000
v 1.500000 -1.625000 -0.750000
v 0.750000 -1.625000 -1.500000
v -0.750000 -1.625000 -1.500000
vn -0.0000 -1.0000 -0.0000
vn -0.0000 1.0000 -0.0000
vn -1.0000 -0.0000 -0.0000
vn 0.7071 -0.0000 -0.7071
vn -0.7071 -0.0000 0.7071
vn -0.0000 -0.0000 -1.0000
vn -0.0000 -0.0000 1.0000
vn -0.7071 -0.0000 -0.7071
vn 0.7071 -0.0000 0.7071
vn 1.0000 -0.0000 -0.0000
vt 0.766234 0.000000
vt 0.766234 0.062500
vt 0.480519 0.062500
vt 0.480519 0.000000
vt 1.000000 0.000000
vt 1.000000 0.062500
vt 0.480519 0.078125
vt 0.766234 0.078125
vt 0.766234 0.171875
vt 0.480519 0.171875
vt 1.000000 0.171875
vt 1.000000 0.078125
s 1
usemtl Material.002
f 18/7/7 10/8/7 14/9/7 17/10/7
f 19/11/7 9/12/7 10/8/7 18/7/7
f 20/7/7 12/8/7 9/9/7 19/10/7
f 21/11/7 11/12/7 12/8/7 20/7/7
f 22/7/7 16/8/7 11/9/7 21/10/7
f 23/11/7 15/12/7 16/8/7 22/7/7
f 24/7/7 13/8/7 15/9/7 23/10/7
f 17/11/7 14/12/7 13/8/7 24/7/7
f 26/8/8 25/9/8 33/10/8 34/7/8
f 27/12/8 26/8/8 34/7/8 35/11/8
f 28/8/8 27/9/8 35/10/8 36/7/8
f 29/12/8 28/8/8 36/7/8 37/11/8
f 30/8/8 29/9/8 37/10/8 38/7/8
f 31/12/8 30/8/8 38/7/8 39/11/8
f 32/8/8 31/9/8 39/10/8 40/7/8
f 25/12/8 32/8/8 40/7/8 33/11/8
f 14/13/9 10/14/9 34/15/9 33/16/9
f 19/17/10 18/15/10 26/14/10 27/18/10
f 10/14/11 9/18/11 35/17/11 34/15/11
f 20/15/12 19/16/12 27/13/12 28/14/12
f 9/13/13 12/14/13 36/15/13 35/16/13
f 21/17/14 20/15/14 28/14/14 29/18/14
f 12/14/15 11/18/15 37/17/15 36/15/15
f 22/15/9 21/16/9 29/13/9 30/14/9
f 11/13/16 16/14/16 38/15/16 37/16/16
f 23/17/11 22/15/11 30/14/11 31/18/11
f 16/14/10 15/18/10 39/17/10 38/15/10
f 24/15/13 23/16/13 31/13/13 32/14/13
f 15/13/12 13/14/12 40/15/12 39/16/12
f 17/17/15 24/15/15 32/14/15 25/18/15
f 18/15/16 17/16/16 25/13/16 26/14/16
f 13/14/14 14/18/14 33/17/14 40/15/14
o Plane.001
v 0.750000 2.000000 1.500000
v 1.500000 2.000000 0.750000
v -1.500000 2.000000 0.750000
v -0.750000 2.000000 1.500000
v 0.750000 2.000000 -1.500000
v 1.500000 2.000000 -0.750000
v -0.750000 2.000000 -1.500000
v -1.500000 2.000000 -0.750000
v 1.226250 2.000000 -0.636609
v 1.226250 2.000000 0.636609
v 0.636609 2.000000 1.226250
v -0.636609 2.000000 1.226250
v -1.226250 2.000000 0.636609
v -1.226250 2.000000 -0.636609
v -0.636609 2.000000 -1.226250
v 0.636609 2.000000 -1.226250
v 1.226250 1.625000 -0.636609
v 1.226250 1.625000 0.636609
v 0.636609 1.625000 1.226250
v -0.636609 1.625000 1.226250
v -1.226250 1.625000 0.636609
v -1.226250 1.625000 -0.636609
v -0.636609 1.625000 -1.226250
v 0.636609 1.625000 -1.226250
v 1.500000 1.625000 -0.750000
v 1.500000 1.625000 0.750000
v 0.750000 1.625000 1.500000
v -0.750000 1.625000 1.500000
v -1.500000 1.625000 0.750000
v -1.500000 1.625000 -0.750000
v -0.750000 1.625000 -1.500000
v 0.750000 1.625000 -1.500000
vn -0.0000 1.0000 -0.0000
vn -0.0000 -1.0000 -0.0000
vn 1.0000 -0.0000 -0.0000
vn -0.7071 -0.0000 -0.7071
vn 0.7071 -0.0000 0.7071
vn -0.0000 -0.0000 -1.0000
vn -0.0000 -0.0000 1.0000
vn 0.7071 -0.0000 -0.7071
vn -0.7071 -0.0000 0.7071
vn -1.0000 -0.0000 -0.0000
vt 0.766234 0.000000
vt 0.766234 0.062500
vt 0.480519 0.062500
vt 0.480519 0.000000
vt 1.000000 0.000000
vt 1.000000 0.062500
vt 0.480519 0.078125
vt 0.766234 0.078125
vt 0.766234 0.171875
vt 0.480519 0.171875
vt 1.000000 0.171875
vt 1.000000 0.078125
s 1
usemtl Material.002
f 50/19/17 42/20/17 46/21/17 49/22/17
f 51/23/17 41/24/17 42/20/17 50/19/17
f 52/19/17 44/20/17 41/21/17 51/22/17
f 53/23/17 43/24/17 44/20/17 52/19/17
f 54/19/17 48/20/17 43/21/17 53/22/17
f 55/23/17 47/24/17 48/20/17 54/19/17
f 56/19/17 45/20/17 47/21/17 55/22/17
f 49/23/17 46/24/17 45/20/17 56/19/17
f 58/20/18 57/21/18 65/22/18 66/19/18
f 59/24/18 58/20/18 66/19/18 67/23/18
f 60/20/18 59/21/18 67/22/18 68/19/18
f 61/24/18 60/20/18 68/19/18 69/23/18
f 62/20/18 61/21/18 69/22/18 70/19/18
f 63/24/18 62/20/18 70/19/18 71/23/18
f 64/20/18 63/21/18 71/22/18 72/19/18
f 57/24/18 64/20/18 72/19/18 65/23/18
f 46/25/19 42/26/19 66/27/19 65/28/19
f 51/29/20 50/27/20 58/26/20 59/30/20
f 42/26/21 41/30/21 67/29/21 66/27/21
f 52/27/22 51/28/22 59/25/22 60/26/22
f 41/25/23 44/26/23 68/27/23 67/28/23
f 53/29/24 52/27/24 60/26/24 61/30/24
f 44/26/25 43/30/25 69/29/25 68/27/25
f 54/27/19 53/28/19 61/25/19 62/26/19
f 43/25/26 48/26/26 70/27/26 69/28/26
f 55/29/21 54/27/21 62/26/21 63/30/21
f 48/26/20 47/30/20 71/29/20 70/27/20
f 56/27/23 55/28/23 63/25/23 64/26/23
f 47/25/22 45/26/22 72/27/22 71/28/22
f 49/29/25 56/27/25 64/26/25 57/30/25
f 50/27/26 49/28/26 57/25/26 58/26/26
f 45/26/24 46/30/24 65/29/24 72/27/24
o Plane.003
v -0.653125 -1.625000 1.375000
v -1.375000 -1.625000 0.653125
v 1.375000 -1.625000 0.653125
v 0.653125 -1.625000 1.375000
v -1.375000 -1.625000 -0.653125
v -0.653125 -1.625000 -1.375000
v 0.653125 -1.625000 -1.375000
v 1.375000 -1.625000 -0.653125
v -0.653125 1.625140 -1.375000
v -1.375000 1.625140 -0.653125
v -1.375000 1.625140 0.653125
v -0.653125 1.625140 1.375000
v 0.653125 1.625140 1.375000
v 1.375000 1.625140 0.653125
v 1.375000 1.625140 -0.653125
v 0.653125 1.625140 -1.375000
v -0.412562 -0.541620 0.868552
v -0.412562 0.541760 0.868552
v -0.868552 -0.541620 0.412562
v -0.868552 0.541760 0.412562
v -0.412562 -0.541620 -0.868552
v -0.412562 0.541760 -0.868552
v -0.868552 -0.541620 -0.412562
v -0.868552 0.541760 -0.412562
v 0.868552 -0.541620 -0.412562
v 0.868552 0.541760 -0.412562
v 0.412562 -0.541620 -0.868552
v 0.412562 0.541760 -0.868552
v 0.868552 -0.541620 0.412562
v 0.868552 0.541760 0.412562
v 0.412562 -0.541620 0.868552
v 0.412562 0.541760 0.868552
vn -0.6872 -0.2354 0.6872
vn -0.6356 -0.4382 0.6356
vn -0.6872 0.2354 -0.6872
vn -0.6356 0.4382 -0.6356
vn 0.6872 0.2354 -0.6872
vn 0.6356 0.4382 -0.6356
vn 0.6872 -0.2354 0.6872
vn 0.6356 -0.4382 0.6356
vn -0.9732 -0.2298 -0.0000
vn -0.9059 -0.4235 -0.0000
vn -0.0000 -0.2298 0.9732
vn -0.0000 -0.4235 0.9059
vn 0.9732 -0.2298 -0.0000
vn 0.9059 -0.4235 -0.0000
vn -0.0000 -0.2298 -0.9732
vn -0.0000 -0.4235 -0.9059
vn -0.0000 0.4235 -0.9059
vn -0.0000 0.2298 -0.9732
vn 0.9059 0.4235 -0.0000
vn 0.9732 0.2298 -0.0000
vn -0.0000 0.4235 0.9059
vn -0.0000 0.2298 0.9732
vn -0.9059 0.4235 -0.0000
vn -0.9732 0.2298 -0.0000
vn 0.6356 0.4382 0.6356
vn 0.6872 0.2354 0.6872
vn 0.6356 -0.4382 -0.6356
vn 0.6872 -0.2354 -0.6872
vn -0.6356 -0.4382 -0.6356
vn -0.6872 -0.2354 -0.6872
vn -0.6356 0.4382 0.6356
vn -0.6872 0.2354 0.6872
vt 0.480519 0.666667
vt 0.480519 1.000000
vt 0.272727 1.000000
vt 0.272727 0.666667
vt 0.272727 0.333333
vt 0.272727 0.000000
vt 0.480519 0.000000
vt 0.480519 0.333333
vt 0.000000 0.666667
vt 0.000000 1.000000
vt 0.000000 0.000000
vt 0.000000 0.333333
s 1
usemtl Material.002
f 90/31/27 84/32/28 83/33/28 92/34/27
f 93/35/29 78/36/30 77/37/30 95/38/29
f 97/35/31 80/36/32 79/37/32 99/38/31
f 102/31/33 86/32/34 85/33/34 104/34/33
f 96/39/35 92/34/35 83/33/36 82/40/36
f 90/39/37 104/34/37 85/33/38 84/40/38
f 102/39/39 98/34/39 87/33/40 86/40/40
f 100/39/41 94/34/41 81/33/42 88/40/42
f 79/41/43 78/36/43 93/35/44 99/42/44
f 99/42/44 93/35/44 94/34/41 100/39/41
f 75/41/45 80/36/45 97/35/46 101/42/46
f 101/42/46 97/35/46 98/34/39 102/39/39
f 73/41/47 76/36/47 103/35/48 89/42/48
f 89/42/48 103/35/48 104/34/37 90/39/37
f 77/41/49 74/36/49 91/35/50 95/42/50
f 95/42/50 91/35/50 92/34/35 96/39/35
f 75/37/51 101/38/52 103/35/52 76/36/51
f 101/38/52 102/31/33 104/34/33 103/35/52
f 87/33/53 98/34/54 100/31/54 88/32/53
f 98/34/54 97/35/31 99/38/31 100/31/54
f 81/33/55 94/34/56 96/31/56 82/32/55
f 94/34/56 93/35/29 95/38/29 96/31/56
f 73/37/57 89/38/58 91/35/58 74/36/57
f 89/38/58 90/31/27 92/34/27 91/35/58
o Plane.006
v -1.260740 -1.625000 0.696775
v -1.260740 -1.625000 -0.696776
v -0.696776 -1.625000 -1.260741
v 0.696776 -1.625000 -1.260741
v 1.260740 -1.625000 -0.696776
v 1.260740 -1.625000 0.696775
v 0.696776 -1.625000 1.260740
v -0.696776 -1.625000 1.260740
v -1.260740 1.564239 -0.696776
v -1.260740 1.564239 0.696776
v -0.696776 1.564239 1.260740
v 0.696776 1.564239 1.260740
v 1.260740 1.564239 0.696776
v 1.260740 1.564239 -0.696776
v 0.696776 1.564239 -1.260741
v -0.696776 1.564239 -1.260741
v -0.996871 -1.625000 0.988966
v -0.996871 -1.625000 -0.988966
v 0.988966 -1.625000 -0.996871
v 0.988966 -1.625000 0.996871
v -0.996871 1.564239 -0.988965
v -0.996871 1.564239 0.988967
v 0.996871 1.564239 0.988967
v 0.988966 1.564239 -0.996870
v -0.978758 1.564239 0.978758
v 0.978758 1.564239 0.978758
v 0.978758 1.564239 -0.978759
v -0.978758 1.564239 -0.978759
v -0.978758 -1.625000 -0.978758
v 0.978758 -1.625000 -0.978758
v 0.978758 -1.625000 0.978758
v -0.978758 -1.625000 0.978758
vn -0.0000 -1.0000 -0.0000
vn -0.0000 1.0000 -0.0000
vt 0.896104 0.265625
vt 0.896104 0.671875
vt 0.558442 0.671875
vt 0.558442 0.265625
vt 0.637716 0.171875
vt 0.816829 0.171875
vt 0.974026 0.171875
vt 0.974026 0.361002
vt 0.974026 0.576498
vt 0.974026 0.765625
vt 0.816829 0.765625
vt 0.637716 0.765625
vt 0.480519 0.765625
vt 0.480519 0.576498
vt 0.480519 0.361002
vt 0.480519 0.171875
s 1
usemtl Material.002
f 122/43/59 123/44/59 124/45/59 121/46/59
f 126/44/60 127/45/60 128/46/60 125/43/60
f 122/43/59 121/46/59 105/47/59 106/48/59
f 122/43/60 106/48/60 133/49/60 107/50/60
f 123/44/59 122/43/59 107/50/59 108/51/59
f 123/44/60 108/51/60 134/52/60 109/53/60
f 124/45/59 123/44/59 109/53/59 110/54/59
f 124/45/60 110/54/60 135/55/60 111/56/60
f 121/46/59 124/45/59 111/56/59 112/57/59
f 121/46/60 112/57/60 136/58/60 105/47/60
f 126/44/60 125/43/60 113/50/60 114/51/60
f 126/44/59 114/51/59 129/52/59 115/53/59
f 127/45/60 126/44/60 115/53/60 116/54/60
f 127/45/59 116/54/59 130/55/59 117/56/59
f 128/46/60 127/45/60 117/56/60 118/57/60
f 128/46/59 118/57/59 131/58/59 119/47/59
f 125/43/60 128/46/60 119/47/60 120/48/60
f 125/43/59 120/48/59 132/49/59 113/50/59
